<?xml version="1.0" encoding="utf-8"?>
<!-- Generator: Adobe Illustrator 16.0.0, SVG Export Plug-In . SVG Version: 6.00 Build 0)  -->
<!DOCTYPE svg PUBLIC "-//W3C//DTD SVG 1.1//EN" "http://www.w3.org/Graphics/SVG/1.1/DTD/svg11.dtd">
<svg version="1.1" id="Capa_1" xmlns="http://www.w3.org/2000/svg" xmlns:xlink="http://www.w3.org/1999/xlink" x="0px" y="0px"
	 width="500px" height="115px" viewBox="0 0 500 115" enable-background="new 0 0 500 115" xml:space="preserve">
<g>
	<g>
		<path fill="#C6C7C9" d="M17.908,29.681c13.292-0.003,26.583,0,39.875,0c0,4.141,0,6.21,0,10.351c-10.906,0-16.361,0-27.267,0
			c0,7.625,0,11.438,0,19.063c10.168,0,15.252,0,25.421,0c0,4.141,0,6.21,0,10.351c-10.168,0-15.253,0-25.421,0
			c0,9.771,0,19.542,0,29.314c-5.043,0-7.564,0-12.608,0C17.908,75.734,17.908,52.708,17.908,29.681z"/>
		<path fill="#C6C7C9" d="M80.739,34.907c0.049,3.742-2.769,6.765-7.176,6.765c-4.203,0-6.969-2.972-6.969-6.765
			c0-3.895,2.869-6.868,7.072-6.868C77.971,28.04,80.688,31.063,80.739,34.907z M67.312,98.761
			c-0.002-16.638-0.001-33.276-0.001-49.914c5.084,0,7.627,0,12.711,0c0.001,16.638,0,33.276,0,49.914
			C74.938,98.761,72.396,98.761,67.312,98.761z"/>
		<path fill="#C6C7C9" d="M93.55,63.708c0-5.74-0.103-10.557-0.41-14.861c4.428,0,6.642,0,11.07,0
			c0.246,2.993,0.369,4.49,0.615,7.482c0.123,0,0.185,0,0.308,0c2.152-3.895,7.622-8.574,15.888-8.61
			c11.583-0.051,18.306,10.574,17.731,21.42c0.002,9.874,0,19.748,0,29.622c-5.043,0-7.565,0-12.608,0c0-9.395,0-18.791,0-28.186
			c0-7.175-2.665-12.606-9.532-12.606c-5.023,0-8.495,3.615-9.84,7.379c-0.402,1.124-0.514,2.664-0.514,4.099
			c0,9.771,0,19.542,0,29.314c-5.084,0-7.626,0-12.71,0C93.55,87.077,93.549,75.392,93.55,63.708z"/>
		<path fill="#C6C7C9" d="M198.193,25.991c0,19.577,0.004,39.153,0,58.729c0,5.125,0.206,10.658,0.41,14.041
			c-4.509,0-6.763,0-11.271,0c-0.205-3.157-0.307-4.735-0.512-7.892c-0.082,0-0.124,0-0.206,0
			c-2.972,5.535-9.035,9.037-16.294,9.019c-13.583-0.034-21.263-13.29-21.32-25.521c-0.06-12.902,8.151-26.605,22.346-26.648
			c6.847-0.021,11.784,2.869,14.038,6.559c0.082,0,0.124,0,0.206,0c0-9.429-0.002-18.858,0-28.288
			C190.631,25.991,193.151,25.991,198.193,25.991z M185.588,69.652c0-1.025-0.089-2.272-0.305-3.279
			c-1.042-4.866-5.125-8.917-10.864-8.917c-8.098,0-12.608,7.174-12.608,16.501c0,9.122,4.51,15.784,12.506,15.784
			c5.124,0,9.545-3.63,10.863-8.917c0.276-1.109,0.409-2.356,0.409-3.689C185.589,74.143,185.588,72.645,185.588,69.652z"/>
		<path fill="#C6C7C9" d="M239.793,98.761c-0.328-2.214-0.491-3.321-0.819-5.535c-0.123,0-0.185,0-0.308,0
			c-3.074,3.895-8.3,6.663-14.755,6.663c-10.042,0-15.629-7.327-15.68-14.86c-0.103-15.219,17.571-19.284,29.615-18.86
			c0-0.328,0-0.491,0-0.819c0-3.28-1.332-8.712-10.144-8.712c-4.918,0-10.042,1.537-13.424,3.689
			c-0.983-3.28-1.476-4.919-2.459-8.199c3.688-2.255,10.33-4.228,18.035-4.407c12.464-0.29,20.931,8.742,20.598,21.01
			c0,7.216,0,10.823,0,18.039c0,4.51,0.205,8.917,0.718,11.991C246.618,98.76,244.343,98.761,239.793,98.761z M238.153,74.367
			c-8.915-0.205-17.42,1.744-17.42,9.328c0,4.919,3.177,7.174,7.173,7.174c5.021,0,8.688-3.321,9.836-6.867
			c0.297-0.917,0.411-1.947,0.411-2.767C238.153,78.488,238.153,77.114,238.153,74.367z"/>
		<path fill="#C6C7C9" d="M264.28,30.602c4.509-0.82,10.76-1.434,19.265-1.434c9.223,0,15.989,1.976,20.393,5.637
			c4.072,3.385,6.761,8.815,6.761,15.272c0,6.56-2.15,11.99-5.941,15.681c-5.02,4.887-12.912,7.38-21.827,7.38
			c-2.357,0-4.509-0.103-6.148-0.41c0,10.413-0.002,15.619-0.001,26.032c-5.001,0-7.5,0-12.501,0
			C264.281,76.041,264.28,53.321,264.28,30.602z M276.781,62.786c1.537,0.41,3.587,0.513,6.148,0.513
			c9.428,0,15.166-4.613,15.166-12.71c0-7.687-5.329-11.786-14.039-11.786c-3.484,0-5.943,0.308-7.275,0.615
			C276.781,48.765,276.781,53.438,276.781,62.786z"/>
		<path fill="#C6C7C9" d="M320.738,25.991c5.083,0,7.623,0,12.707,0c0,24.257,0,48.513,0,72.77c-5.084,0-7.624-0.001-12.707-0.001
			C320.738,74.503,320.738,50.247,320.738,25.991z"/>
		<path fill="#C6C7C9" d="M375.161,98.761c-0.328-2.214-0.492-3.321-0.82-5.535c-0.123,0-0.184,0.001-0.307,0.001
			c-3.075,3.895-8.303,6.662-14.761,6.662c-10.045,0-15.633-7.327-15.684-14.86c-0.103-15.224,17.575-19.285,29.622-18.86
			c0-0.328,0-0.491,0-0.819c0-3.28-1.33-8.712-10.146-8.712c-4.92,0-10.048,1.537-13.43,3.689c-0.984-3.28-1.476-4.919-2.46-8.199
			c3.69-2.255,10.333-4.229,18.042-4.407c12.469-0.289,20.93,8.741,20.603,21.01c0,7.216,0.002,10.823,0.002,18.039
			c0,4.51,0.203,8.917,0.716,11.992C381.988,98.761,379.712,98.761,375.161,98.761z M373.521,74.367
			c-8.918-0.205-17.426,1.743-17.426,9.327c0,4.919,3.178,7.175,7.176,7.175c5.021,0,8.692-3.321,9.84-6.867
			c0.297-0.917,0.41-1.947,0.41-2.767C373.521,78.488,373.521,77.114,373.521,74.367z"/>
		<path fill="#C6C7C9" d="M435.839,97.224c-2.665,1.23-7.956,2.5-14.146,2.562c-14.546,0.145-25.798-10.843-25.728-25.418
			c0.074-15.417,12.517-26.8,27.779-26.647c4.566,0.046,9.327,1.025,12.197,2.357c-0.902,3.771-1.354,5.657-2.257,9.429
			c-2.05-0.922-5.022-1.947-9.533-1.947c-9.635,0-15.323,7.123-15.272,16.194c0.058,10.192,6.662,16.091,15.272,16.091
			c4.407,0,7.483-0.922,9.943-1.947C434.792,91.627,435.142,93.494,435.839,97.224z"/>
		<path fill="#C6C7C9" d="M453.158,77.34c0.308,9.019,7.381,12.914,15.377,12.914c5.843,0,10.047-0.82,13.839-2.255
			c0.738,3.485,1.106,5.227,1.845,8.712c-4.305,1.742-10.344,2.984-17.426,3.075c-14.573,0.187-25.847-10.539-25.729-25.213
			c0.111-13.831,9.761-26.749,24.396-26.853c13.55-0.096,21.581,11.721,21.525,24.291c-0.011,2.347-0.205,4.203-0.409,5.331
			C475.437,77.34,464.298,77.34,453.158,77.34z M475.096,68.525c0.103-4.612-1.947-12.196-10.353-12.196
			c-7.791,0-11.07,7.071-11.583,12.196C461.935,68.525,466.321,68.525,475.096,68.525z"/>
	</g>
</g>
<g>
	<g>
		<path fill="#3E5A85" d="M14.277,25.625c13.292,0,26.583,0,39.875,0c0,4.141,0,6.21,0,10.351c-10.906,0-16.361,0-27.267,0
			c0,7.625,0,11.438,0,19.063c10.168,0,15.252,0,25.421,0c0,4.141,0,6.21,0,10.351c-10.168,0-15.252,0-25.421,0
			c0.001,9.771,0,19.543-0.001,29.314c-5.043,0-7.563,0-12.606,0C14.276,71.678,14.277,48.651,14.277,25.625z"/>
		<path fill="#3E5A85" d="M77.108,30.851c0.049,3.742-2.768,6.765-7.176,6.765c-4.203,0-6.971-2.972-6.971-6.765
			c0-3.895,2.871-6.868,7.074-6.868C74.34,23.982,77.058,27.006,77.108,30.851z M63.681,94.704c0-16.638,0.001-33.276-0.001-49.914
			c5.084,0,7.627,0,12.711,0c0,16.638,0,33.275,0,49.913C71.307,94.703,68.765,94.704,63.681,94.704z"/>
		<path fill="#3E5A85" d="M89.919,59.651c0-5.74-0.103-10.557-0.41-14.861c4.428,0,6.642,0,11.07,0
			c0.246,2.993,0.369,4.49,0.615,7.482c0.123,0,0.184,0,0.307,0c2.152-3.895,7.623-8.575,15.89-8.61
			c11.583-0.05,18.307,10.575,17.731,21.421c-0.001,9.874,0,19.748,0.001,29.621c-5.043,0-7.566,0-12.609,0
			c0.001-9.395,0-18.791,0-28.186c0-7.175-2.665-12.606-9.532-12.606c-5.023,0-8.495,3.616-9.841,7.38
			c-0.402,1.124-0.513,2.663-0.513,4.098c0.001,9.771,0,19.543,0,29.314c-5.084,0-7.625,0-12.709,0
			C89.92,83.02,89.917,71.335,89.919,59.651z"/>
		<path fill="#3E5A85" d="M194.563,21.934c0.004,19.577-0.005,39.153,0.001,58.729c0,5.125,0.205,10.658,0.41,14.041
			c-4.509,0-6.763,0-11.271,0c-0.205-3.157-0.307-4.734-0.512-7.891c-0.082,0-0.123,0-0.205,0
			c-2.972,5.535-9.037,9.038-16.296,9.019c-13.581-0.036-21.266-13.286-21.321-25.521c-0.058-12.904,8.15-26.605,22.346-26.648
			c6.847-0.021,11.785,2.869,14.039,6.559c0.082,0,0.123,0.001,0.205,0.001c0-9.43-0.001-18.859,0-28.289
			C186.999,21.934,189.521,21.934,194.563,21.934z M181.958,65.596c0-1.025-0.09-2.272-0.306-3.279
			c-1.042-4.866-5.124-8.917-10.862-8.917c-8.098,0-12.608,7.174-12.608,16.501c0,9.122,4.509,15.784,12.505,15.784
			c5.124,0,9.546-3.63,10.864-8.917c0.276-1.109,0.407-2.356,0.407-3.689C181.958,70.086,181.958,68.588,181.958,65.596z"/>
		<path fill="#3E5A85" d="M236.162,94.704c-0.328-2.214-0.491-3.321-0.819-5.535c-0.123,0-0.184,0-0.307,0
			c-3.074,3.895-8.3,6.663-14.756,6.663c-10.042,0-15.626-7.33-15.679-14.861c-0.105-15.218,17.571-19.282,29.613-18.859
			c0-0.328,0-0.492,0-0.82c0-3.28-1.331-8.711-10.144-8.711c-4.918,0-10.042,1.537-13.424,3.689c-0.983-3.28-1.477-4.92-2.46-8.2
			c3.688-2.255,10.33-4.228,18.035-4.407c12.465-0.29,20.928,8.743,20.598,21.01c0,7.216,0,10.823,0,18.039
			c0,4.51,0.205,8.917,0.718,11.991C242.987,94.703,240.712,94.704,236.162,94.704z M234.521,70.311
			c-8.915-0.205-17.419,1.743-17.419,9.327c0,4.919,3.177,7.175,7.173,7.175c5.021,0,8.688-3.321,9.836-6.868
			c0.297-0.917,0.41-1.948,0.41-2.768C234.522,74.431,234.521,73.058,234.521,70.311z"/>
		<path fill="#3E5A85" d="M260.649,26.546c4.509-0.82,10.76-1.435,19.265-1.435c9.223,0,15.989,1.976,20.393,5.637
			c4.072,3.385,6.761,8.815,6.761,15.272c0,6.56-2.15,11.989-5.941,15.68c-5.02,4.887-12.912,7.379-21.827,7.379
			c-2.357,0-4.51-0.102-6.149-0.41c0,10.413,0.001,15.62,0.002,26.033c-5.001,0-7.501,0.001-12.502,0.001
			C260.647,71.985,260.649,49.265,260.649,26.546z M273.149,58.729c1.537,0.41,3.588,0.512,6.149,0.512
			c9.428,0,15.166-4.612,15.166-12.709c0-7.687-5.33-11.787-14.04-11.787c-3.484,0-5.941,0.309-7.273,0.616
			C273.15,44.708,273.149,49.381,273.149,58.729z"/>
		<path fill="#3E5A85" d="M317.107,21.934c5.083,0,7.623,0,12.707,0c0,24.257,0,48.513,0,72.77c-5.084,0-7.624,0-12.707,0
			C317.107,70.447,317.107,46.191,317.107,21.934z"/>
		<path fill="#3E5A85" d="M371.53,94.704c-0.328-2.214-0.494-3.321-0.822-5.535c-0.123,0-0.182,0-0.305,0
			c-3.075,3.895-8.303,6.663-14.761,6.663c-10.045,0-15.633-7.327-15.684-14.86c-0.103-15.223,17.576-19.285,29.622-18.86
			c0-0.328,0-0.492,0-0.82c0-3.28-1.33-8.711-10.146-8.711c-4.92,0-10.048,1.536-13.43,3.688c-0.984-3.28-1.475-4.92-2.459-8.2
			c3.689-2.255,10.332-4.229,18.041-4.407c12.472-0.289,20.926,8.74,20.604,21.01c0,7.216,0,10.823,0,18.039
			c0,4.51,0.203,8.917,0.716,11.992C378.357,94.704,376.081,94.704,371.53,94.704z M369.891,70.311
			c-8.918-0.205-17.426,1.743-17.426,9.327c0,4.919,3.178,7.175,7.176,7.175c5.021,0,8.692-3.322,9.84-6.868
			c0.297-0.917,0.41-1.948,0.41-2.768C369.891,74.431,369.891,73.058,369.891,70.311z"/>
		<path fill="#3E5A85" d="M432.208,93.167c-2.665,1.23-7.954,2.5-14.145,2.562c-14.549,0.145-25.799-10.839-25.729-25.418
			c0.073-15.419,12.516-26.8,27.779-26.648c4.566,0.045,9.327,1.025,12.197,2.358c-0.902,3.771-1.354,5.657-2.257,9.429
			c-2.05-0.922-5.022-1.947-9.533-1.947c-9.635,0-15.323,7.122-15.272,16.193c0.058,10.192,6.662,16.092,15.272,16.092
			c4.407,0,7.483-0.921,9.943-1.946C431.161,87.571,431.511,89.437,432.208,93.167z"/>
		<path fill="#3E5A85" d="M449.525,73.284c0.308,9.019,7.383,12.914,15.379,12.914c5.843,0,10.046-0.82,13.838-2.255
			c0.738,3.485,1.107,5.227,1.846,8.712c-4.305,1.742-10.344,2.984-17.426,3.074c-14.571,0.187-25.848-10.541-25.729-25.213
			c0.112-13.83,9.762-26.751,24.397-26.853c13.552-0.095,21.577,11.72,21.523,24.291c-0.01,2.347-0.207,4.203-0.411,5.331
			C471.804,73.283,460.665,73.284,449.525,73.284z M471.465,64.469c0.103-4.612-1.949-12.196-10.354-12.196
			c-7.791,0-11.07,7.071-11.583,12.196C458.302,64.469,462.69,64.469,471.465,64.469z"/>
	</g>
</g>
</svg>
