<?xml version="1.0" encoding="utf-8"?>
<!-- Generator: Adobe Illustrator 16.0.0, SVG Export Plug-In . SVG Version: 6.00 Build 0)  -->
<!DOCTYPE svg PUBLIC "-//W3C//DTD SVG 1.1//EN" "http://www.w3.org/Graphics/SVG/1.1/DTD/svg11.dtd">
<svg version="1.1" id="Capa_1" xmlns="http://www.w3.org/2000/svg" xmlns:xlink="http://www.w3.org/1999/xlink" x="0px" y="0px"
	 width="500px" height="500px" viewBox="0 0 500 500" enable-background="new 0 0 500 500" xml:space="preserve">
<g>
	<g>
		<path fill-rule="evenodd" clip-rule="evenodd" fill="#CB5E27" d="M244.736,381.036c-0.157,1.436-0.377,3.355-2.001,0.959
			c-1.104-1.629-1.516-3.741-2.159-5.661c-9.146-27.318-20.121-53.893-35.239-78.444c-16.04-26.048-33.629-51.059-54.965-73.197
			c-6.823-7.079-12.515-15.036-18.293-22.987c-15.713-21.62-21.864-46.203-22.358-72.252c-0.449-23.736,5.054-46.604,18.306-66.381
			C150.076,30.166,180.249,9,220.6,4.425c10.451-1.185,20.881-1.638,31.318,0.06c-4.783,2.72-9.704,0.755-14.12,0.794
			c3.595,1.103,7.88,0.464,12.043,0.92c28.132,3.082,52.485,14.529,74.049,32.533c10.89,9.091,20.68,19.312,30.786,29.211
			c16.621,25.294,23.244,53.132,21.148,83.186c-3.363-0.835-1.265-4.579-3.52-6.33c-1.689,9.942-3.803,19.625-6.728,29.167
			c-5.752,18.774-16.354,34.383-29.883,48.292c-21.04,21.626-40.407,44.483-56.809,70.022c-13.105,20.404-23.119,42.04-32.038,64.38
			c-1.698,4.251-2,8.514-1.721,12.944C245.517,373.436,244.572,377.216,244.736,381.036z"/>
		<path fill-rule="evenodd" clip-rule="evenodd" fill="#709DD1" d="M308.236,416.691c-50.351-0.447-100.019-4.354-148.661-13.17
			c-8.193-1.482-16.183-3.345-23.365-6.428c-2.222-0.954-4.247-2.232-3.708-4.091c0.484-1.671,3.104-2.149,5.299-2.614
			c6.395-1.357,13.032-2.022,19.692-2.212c43.396-1.234,86.284,1.564,128.993,6.594c18.034,2.124,35.782,4.697,53.13,8.503
			c5.126,1.123,10.182,2.461,14.429,4.738c4.865,2.605,4.44,4.867-1.437,6.257c-8.322,1.97-17.063,2.449-25.872,2.425
			C320.569,416.679,314.401,416.691,308.236,416.691z"/>
		<path fill-rule="evenodd" clip-rule="evenodd" fill="#D17739" d="M243.765,368.841c-1.187-8.387,2.849-15.516,5.882-22.745
			c6.208-14.794,12.37-29.665,21.031-43.256c10.325-16.203,20.565-32.485,32.94-47.266c11.181-13.352,23.274-25.86,35.286-38.458
			c16.183-16.975,25.33-37.598,29.977-60.4c1-4.907,1.214-9.994,3.086-14.958c3.768,2.318,2.065,6.563,3.857,9.371
			c-0.563,10.474-2.634,20.645-6.126,30.531c-3.024,0.816-3.896,3.636-5.203,5.897c-3.895,6.735-7.126,13.861-12.017,20
			c-4.006,5.03-8.105,10.008-12.673,14.518c-23.467,23.175-43.912,48.606-61.175,76.839c-12.019,19.657-21.021,40.49-29.427,61.746
			C248.021,363.652,248.291,367.944,243.765,368.841z"/>
		<path fill-rule="evenodd" clip-rule="evenodd" fill="#D78C45" d="M361.713,198.99c-3.028,8.926-8.509,16.246-15.082,22.811
			c-26.684,26.652-51.194,54.933-69.556,88.237c-3.738,6.781-7.565,13.64-11.669,20.273c-2.258-1.563-2.344-1.59-1.451-4.362
			c2.144-6.656,5.623-12.722,9.251-18.594c7.718-12.494,15.179-25.162,23.815-37.08c9.24-12.753,19.462-24.665,30.433-35.926
			c10.516-10.792,21.367-21.266,29.758-33.914C358.327,198.754,359.542,197.388,361.713,198.99z"/>
		<path fill-rule="evenodd" clip-rule="evenodd" fill="#D37F3D" d="M361.713,198.99c-3.308-0.396-4.394,2.508-5.573,4.417
			c-5.662,9.154-13.188,16.762-20.716,24.176c-16.791,16.536-32.386,34.041-45.153,53.83c-8.69,13.464-17.532,26.925-24.06,41.658
			c-0.957,2.159-3.557,4.517-0.805,7.24c-7.748,16.559-14.129,33.674-20.67,50.725c-2.058-3.928-0.513-8.142-0.972-12.195
			c4.05-3.991,4.613-9.628,6.565-14.54c6.493-16.353,12.921-32.774,22.146-47.771c12.006-19.521,24.219-38.915,39.373-56.319
			c11.883-13.648,24.949-26.162,36.87-39.751c6.986-7.963,11.184-17.655,16.496-26.656c1.066-1.807,1.793-3.916,4.482-2.143
			C367.725,187.754,365.644,193.798,361.713,198.99z"/>
		<path fill-rule="evenodd" clip-rule="evenodd" fill="#B84F18" d="M354.676,67.943c-4.016-1.674-7.182-4.579-10.013-7.681
			c-18.226-19.964-39.029-36.346-64.568-45.873c-12.024-4.484-24.659-6.788-37.502-7.606c-2.045-0.13-3.988-0.325-5.782-2.297
			c5.039,0,10.076,0,15.11-0.001c19.49,1.67,37.583,7.7,54.442,17.537c15.22,8.88,28.077,20.422,39.24,34.05
			C348.773,59.942,352.438,63.374,354.676,67.943z"/>
		<path fill-rule="evenodd" clip-rule="evenodd" fill="#CC6538" d="M184.755,237.609c-17.043-11.194-31.063-25.243-40.528-43.462
			c-7.396-14.237-11.556-29.333-12.468-45.46c-0.973-17.226,2.298-33.713,8.65-49.403c4.212-10.405,10.337-20.016,18.219-28.414
			c9.336-9.946,19.651-18.578,31.621-25.026c10.162-5.474,21.413-7.947,32.562-10.709c8.493-2.104,17.118-2.786,25.55-1.761
			c21.478,2.611,42.069,7.883,59.692,21.736c14.328,11.262,25.616,24.575,33.87,40.908c12.792,25.315,14.341,51.535,6.574,78.153
			c-4.673,16.016-13.086,30.545-24.402,43.119c0.337,2.102-1.47,2.911-2.581,4.032c-11.807,11.922-25.304,21.559-41.272,26.768
			c-24.205,7.894-48.696,8.92-73.216,0.649c-6.427-2.168-12.693-4.541-18.525-8.002C187.083,239.895,185.261,239.54,184.755,237.609
			z"/>
		<path fill-rule="evenodd" clip-rule="evenodd" fill="#B7541A" d="M184.755,237.609c13.974,8.366,29.326,13.158,45.279,14.929
			c12.861,1.429,25.856,0.452,38.715-2.648c21.88-5.273,40.134-16.239,55.346-32.601c1.522,0.1,1.754,0.745,0.714,1.816
			c-10.983,11.294-22.699,21.541-37.549,27.653c-16.632,6.844-33.884,10.358-51.806,9.065c-17.651-1.273-34.413-6.109-49.765-15.212
			C184.567,239.947,183.03,239.237,184.755,237.609z"/>
		<path fill-rule="evenodd" clip-rule="evenodd" fill="#FCFBFB" d="M189.253,167.742c0-7.782,0.184-15.57-0.084-23.343
			c-0.119-3.457,1.094-5.663,3.737-7.698c15.522-11.945,30.993-23.956,46.382-36.071c2.332-1.835,3.865-1.604,6.105,0.121
			c15.264,11.751,30.639,23.359,45.966,35.029c1.59,1.21,3.183,2.269,3.192,4.773c0.072,19.469-0.714,38.905-1.765,58.337
			c-0.135,2.453-1.188,3.208-3.412,3.273c-10.829,0.314-21.654,0.706-32.484,1.029c-3.233,0.096-2.182-2.529-2.186-4.049
			c-0.021-9.483-0.07-18.975,0.342-28.443c0.193-4.412-1.418-5.561-5.514-5.316c-5.063,0.301-10.169,0.263-15.239,0.016
			c-3.697-0.181-5.165,0.964-4.985,4.855c0.454,9.809,0.416,19.641,0.917,29.447c0.195,3.824-0.905,5.052-4.765,4.87
			c-10.141-0.479-20.298-0.701-30.451-0.805c-3.028-0.031-3.88-1.016-4.208-4.062C189.657,189.061,190.41,178.386,189.253,167.742z"
			/>
		<path fill-rule="evenodd" clip-rule="evenodd" fill="#FBFBFB" d="M318.776,137.972c-12.898,3.034-18.692-7.281-26.563-13.242
			c-16.03-12.137-31.791-24.631-47.558-37.11c-2.435-1.926-3.878-0.786-5.659,0.643c-11.087,8.893-21.969,18.064-33.365,26.544
			c-9.502,7.071-18.449,14.762-27.448,22.414c-3.805,3.235-8.125,0.85-12.067,1.762c-0.804-1.844,0.755-2.271,1.498-2.943
			c8.537-7.718,16.778-15.818,25.793-22.937c14.952-11.805,29.254-24.378,44.091-36.31c2.325-1.87,4.179-3.314,7.31-0.768
			c24.4,19.836,49.637,38.659,72.564,60.271C317.836,136.731,318.197,137.274,318.776,137.972z"/>
		<path fill-rule="evenodd" clip-rule="evenodd" fill="#FBFBFA" d="M282.918,99.261c-6.395-5.03-12.444-9.774-18.475-14.548
			c-0.879-0.695-3.443-12.635-2.857-13.454c0.664-0.931,1.79-0.804,2.793-0.803c5.078,0.004,10.157,0.074,15.234,0.022
			c2.276-0.023,3.382,0.684,3.347,3.214C282.847,81.967,282.918,90.245,282.918,99.261z"/>
	</g>
</g>
<g>
	<g>
		<path fill="#C6C7C9" d="M57.084,437.477c11.266,0,22.532,0,33.798,0c0,3.511,0,5.268,0,8.778c-9.245,0-13.868,0-23.112,0
			c0,6.465,0,9.696,0,16.161c8.619,0,12.93,0,21.548,0c0,3.511-0.001,5.266-0.001,8.776c-8.619,0-12.929,0-21.547,0
			c0,9.941,0,14.912,0,24.854c-4.274,0-6.412,0-10.686,0C57.084,476.522,57.084,457,57.084,437.477z"/>
		<path fill="#C6C7C9" d="M110.345,441.908c0.042,3.172-2.346,5.734-6.082,5.734c-3.562,0-5.907-2.518-5.907-5.732
			c0-3.302,2.432-5.826,5.994-5.826C108,436.084,110.302,438.649,110.345,441.908z M98.964,496.045c0-14.106,0-28.212,0-42.318
			c4.31,0,6.465-0.001,10.774-0.001c0,14.106,0,28.214,0,42.32C105.429,496.046,103.273,496.045,98.964,496.045z"/>
		<path fill="#C6C7C9" d="M121.208,466.326c0-4.866-0.088-8.951-0.349-12.601c3.753,0,5.63,0,9.384,0
			c0.208,2.537,0.313,3.805,0.521,6.342c0.104,0,0.157,0,0.261,0c1.824-3.302,6.429-7.298,13.467-7.298
			c7.385,0,15.031,4.78,15.031,18.162c0,10.046,0,15.068,0,25.114c-4.275,0-6.412,0-10.687,0c0-9.559,0-14.34,0-23.898
			c0-6.082-2.258-10.688-8.08-10.688c-4.257,0-7.2,3.067-8.341,6.259c-0.341,0.953-0.435,2.258-0.435,3.475
			c0,9.941,0,14.912,0,24.854c-4.31,0-6.464,0-10.773,0C121.208,486.14,121.206,476.232,121.208,466.326z"/>
		<path fill="#C6C7C9" d="M209.919,434.348c0,16.597,0,33.193,0,49.79c0,4.345,0.175,9.04,0.349,11.908c-3.823,0-5.735,0-9.559,0
			c-0.174-2.677-0.26-4.016-0.434-6.692c-0.069,0-0.105,0-0.174,0c-2.52,4.692-7.695,7.694-13.815,7.646
			c-11.431-0.089-18.023-11.242-18.072-21.637c-0.052-10.958,6.996-22.503,18.942-22.594c5.777-0.044,9.99,2.434,11.901,5.562
			c0.069,0,0.107,0,0.176,0c0-9.593,0-14.39,0-23.983C203.508,434.348,205.644,434.348,209.919,434.348z M199.233,471.365
			c0-0.869-0.079-1.926-0.262-2.78c-0.885-4.126-4.343-7.56-9.209-7.56c-6.864,0-10.687,6.083-10.687,13.99
			c0,7.734,3.822,13.383,10.599,13.383c4.344,0,8.092-3.079,9.21-7.561c0.234-0.94,0.348-1.999,0.348-3.129
			C199.233,475.172,199.233,473.902,199.233,471.365z"/>
		<path fill="#C6C7C9" d="M245.196,496.046c-0.278-1.877-0.417-2.817-0.696-4.694c-0.104,0-0.156,0-0.26,0
			c-2.606,3.303-7.038,5.648-12.512,5.648c-8.514,0-13.251-6.211-13.293-12.6c-0.084-12.907,14.894-16.349,25.109-15.989
			c0-0.278,0-0.415,0-0.693c0-2.78-1.129-7.388-8.602-7.388c-4.17,0-8.514,1.304-11.381,3.128c-0.834-2.78-1.251-4.172-2.085-6.952
			c3.128-1.911,8.798-3.548,15.291-3.736c10.432-0.303,17.895,7.508,17.463,17.814c0,6.117,0.002,9.176,0.002,15.293
			c0,3.824,0.174,7.563,0.608,10.169C250.983,496.046,249.054,496.046,245.196,496.046z M243.805,475.363
			c-7.559-0.174-14.771,1.478-14.771,7.907c0,4.171,2.693,6.083,6.082,6.083c4.257,0,7.368-2.815,8.341-5.822
			c0.251-0.777,0.347-1.65,0.347-2.346C243.805,478.856,243.805,477.692,243.805,475.363z"/>
		<path fill="#C6C7C9" d="M265.966,438.259c3.823-0.695,9.121-1.218,16.333-1.218c7.819,0,13.556,1.675,17.29,4.779
			c3.452,2.87,5.732,7.474,5.732,12.948c0,5.562-1.823,10.165-5.038,13.295c-4.256,4.143-10.948,6.257-18.508,6.257
			c-1.998,0-3.82-0.087-5.211-0.348c0,8.829-0.001,13.244,0,22.073c-4.24,0-6.358,0-10.599,0
			C265.966,476.783,265.966,457.521,265.966,438.259z M276.564,465.543c1.303,0.348,3.037,0.436,5.209,0.436
			c7.993,0,12.86-3.911,12.86-10.775c0-6.517-4.517-9.991-11.901-9.991c-2.954,0-5.038,0.261-6.168,0.521
			C276.564,453.658,276.564,457.618,276.564,465.543z"/>
		<path fill="#C6C7C9" d="M313.84,434.348c4.31,0,6.464,0,10.773,0c0,20.566,0,41.132,0,61.698c-4.31,0-6.464,0-10.773,0
			C313.84,475.479,313.84,454.914,313.84,434.348z"/>
		<path fill="#C6C7C9" d="M359.976,496.046c-0.278-1.877-0.416-2.817-0.694-4.694c-0.104,0-0.156,0-0.261,0
			c-2.606,3.303-7.04,5.648-12.514,5.648c-8.515,0-13.25-6.211-13.292-12.6c-0.085-12.906,14.893-16.35,25.108-15.989
			c0-0.278,0-0.415,0-0.693c0-2.78-1.13-7.388-8.602-7.388c-4.17,0-8.516,1.304-11.383,3.128c-0.834-2.78-1.249-4.172-2.083-6.952
			c3.128-1.911,8.798-3.548,15.29-3.736c10.436-0.303,17.888,7.509,17.464,17.814c0,6.117,0.002,9.176,0.002,15.293
			c0,3.824,0.174,7.563,0.608,10.169C365.763,496.046,363.833,496.046,359.976,496.046z M358.586,475.363
			c-7.559-0.174-14.771,1.478-14.771,7.907c0,4.171,2.693,6.083,6.082,6.083c4.257,0,7.367-2.815,8.341-5.822
			c0.252-0.777,0.348-1.65,0.348-2.346C358.586,478.856,358.586,477.692,358.586,475.363z"/>
		<path fill="#C6C7C9" d="M411.411,494.741c-2.259,1.043-6.755,2.105-11.988,2.171c-12.278,0.152-21.887-9.252-21.808-21.549
			c0.084-13.042,10.607-22.721,23.545-22.594c3.871,0.038,7.907,0.869,10.34,1.999c-0.765,3.197-1.147,4.798-1.912,7.995
			c-1.737-0.782-4.257-1.652-8.08-1.652c-8.167,0-12.988,6.04-12.945,13.73c0.049,8.641,5.647,13.643,12.945,13.643
			c3.736,0,6.343-0.78,8.428-1.649C410.526,489.998,410.82,491.578,411.411,494.741z"/>
		<path fill="#C6C7C9" d="M426.098,477.883c0.261,7.647,6.258,10.949,13.035,10.949c4.952,0,8.514-0.695,11.729-1.912
			c0.626,2.954,0.938,4.433,1.564,7.387c-3.649,1.478-8.768,2.527-14.77,2.605c-12.351,0.161-21.89-8.961-21.809-21.375
			c0.077-11.747,8.2-22.673,20.678-22.768c11.537-0.088,18.33,9.955,18.246,20.593c-0.016,1.983-0.174,3.564-0.348,4.521
			C444.981,477.883,435.54,477.883,426.098,477.883z M444.693,470.411c0.086-3.91-1.651-10.344-8.775-10.344
			c-6.604,0-9.386,5.999-9.82,10.344C433.535,470.411,437.256,470.411,444.693,470.411z"/>
	</g>
</g>
<g>
	<g>
		<path fill="#3E5A85" d="M54.006,434.037c11.266,0,22.532,0,33.798,0c0,3.511,0,5.267,0,8.777c-9.245,0-13.867,0-23.111,0
			c0,6.465,0,9.697,0,16.162c8.619,0,12.928,0,21.547,0c0,3.511,0.001,5.266,0.001,8.776c-8.619,0-12.929,0-21.548,0
			c0,9.94,0,14.913,0,24.854c-4.274,0-6.412,0-10.687,0C54.006,473.083,54.006,453.561,54.006,434.037z"/>
		<path fill="#3E5A85" d="M107.267,438.471c0.042,3.172-2.346,5.734-6.082,5.734c-3.562,0-5.907-2.52-5.907-5.734
			c0-3.302,2.432-5.825,5.994-5.825C104.921,432.646,107.224,435.212,107.267,438.471z M95.886,492.606c0-14.106,0-28.213,0-42.319
			c4.31,0,6.465,0,10.774,0c0,14.106,0,28.213,0,42.319C102.351,492.606,100.195,492.606,95.886,492.606z"/>
		<path fill="#3E5A85" d="M118.129,462.887c0-4.866-0.088-8.951-0.349-12.602c3.753,0,5.63,0.002,9.384,0.002
			c0.208,2.537,0.313,3.805,0.521,6.342c0.104,0,0.157,0,0.261,0c1.824-3.302,6.429-7.298,13.467-7.298
			c7.385,0,15.031,4.779,15.031,18.161c0,10.045,0,15.069,0,25.114c-4.275,0-6.412,0-10.687,0c0-9.559,0-14.339,0-23.897
			c0-6.082-2.258-10.688-8.08-10.688c-4.257,0-7.201,3.065-8.342,6.257c-0.341,0.953-0.434,2.259-0.434,3.476
			c0,9.94,0,14.913,0,24.854c-4.31,0-6.464,0-10.774,0C118.129,482.7,118.131,472.793,118.129,462.887z"/>
		<path fill="#3E5A85" d="M206.841,430.909c0,16.597,0,33.192,0,49.789c0,4.345,0.174,9.041,0.348,11.908c-3.823,0-5.734,0-9.558,0
			c-0.174-2.677-0.259-4.016-0.433-6.692c-0.069,0-0.105,0-0.175,0c-2.52,4.692-7.695,7.694-13.815,7.646
			c-11.432-0.089-18.022-11.241-18.072-21.637c-0.053-10.957,6.996-22.502,18.942-22.593c5.777-0.044,9.992,2.434,11.903,5.562
			c0.069,0,0.105,0,0.174,0c0-9.594,0-14.391,0-23.983C200.43,430.909,202.566,430.909,206.841,430.909z M196.154,467.926
			c0-0.869-0.077-1.925-0.26-2.779c-0.885-4.126-4.345-7.561-9.21-7.561c-6.864,0-10.687,6.083-10.687,13.99
			c0,7.734,3.822,13.383,10.6,13.383c4.344,0,8.092-3.079,9.21-7.561c0.234-0.94,0.348-1.999,0.348-3.129
			C196.155,471.732,196.154,470.463,196.154,467.926z"/>
		<path fill="#3E5A85" d="M242.118,492.606c-0.278-1.877-0.417-2.817-0.695-4.694c-0.104,0-0.156,0-0.261,0
			c-2.606,3.302-7.038,5.648-12.512,5.648c-8.514,0-13.25-6.213-13.293-12.6c-0.087-12.905,14.899-16.345,25.109-15.988
			c0-0.278,0-0.417,0-0.695c0-2.78-1.129-7.384-8.602-7.384c-4.17,0-8.514,1.302-11.381,3.126c-0.834-2.78-1.251-4.174-2.085-6.954
			c3.128-1.911,8.798-3.547,15.292-3.734c10.434-0.302,17.893,7.505,17.463,17.813c0,6.117,0.002,9.176,0.002,15.293
			c0,3.824,0.174,7.563,0.608,10.169C247.905,492.606,245.976,492.606,242.118,492.606z M240.727,471.924
			c-7.559-0.174-14.771,1.479-14.771,7.908c0,4.171,2.693,6.082,6.082,6.082c4.257,0,7.37-2.815,8.343-5.822
			c0.251-0.777,0.345-1.65,0.345-2.346C240.727,475.417,240.727,474.253,240.727,471.924z"/>
		<path fill="#3E5A85" d="M262.888,434.821c3.823-0.695,9.121-1.221,16.333-1.221c7.819,0,13.556,1.679,17.29,4.783
			c3.452,2.87,5.732,7.472,5.732,12.946c0,5.562-1.823,10.165-5.038,13.295c-4.256,4.143-10.948,6.257-18.508,6.257
			c-1.998,0-3.82-0.088-5.211-0.349c0,8.828-0.001,13.245,0,22.073c-4.24,0-6.358,0-10.599,0
			C262.888,473.345,262.888,454.083,262.888,434.821z M273.486,462.104c1.303,0.348,3.039,0.435,5.211,0.435
			c7.993,0,12.858-3.911,12.858-10.775c0-6.517-4.518-9.992-11.902-9.992c-2.954,0-5.037,0.262-6.167,0.522
			C273.486,450.219,273.486,454.18,273.486,462.104z"/>
		<path fill="#3E5A85" d="M310.762,430.909c4.31,0,6.464,0,10.773,0c0,20.565,0,41.132,0,61.697c-4.31,0-6.464,0-10.773,0
			C310.762,472.041,310.762,451.475,310.762,430.909z"/>
		<path fill="#3E5A85" d="M356.896,492.606c-0.278-1.877-0.415-2.817-0.693-4.694c-0.104,0-0.157,0-0.262,0
			c-2.606,3.302-7.038,5.648-12.512,5.648c-8.515,0-13.25-6.212-13.293-12.6c-0.087-12.906,14.897-16.346,25.109-15.988
			c0-0.278,0-0.417,0-0.695c0-2.78-1.13-7.384-8.602-7.384c-4.17,0-8.518,1.302-11.385,3.126c-0.834-2.78-1.248-4.174-2.082-6.954
			c3.128-1.911,8.798-3.546,15.291-3.734c10.434-0.303,17.891,7.507,17.461,17.813c0,6.117,0.004,9.176,0.004,15.293
			c0,3.824,0.173,7.563,0.607,10.169C362.684,492.606,360.754,492.606,356.896,492.606z M355.506,471.924
			c-7.559-0.174-14.77,1.479-14.77,7.908c0,4.171,2.693,6.082,6.082,6.082c4.257,0,7.368-2.815,8.342-5.822
			c0.252-0.777,0.346-1.65,0.346-2.346C355.506,475.417,355.506,474.253,355.506,471.924z"/>
		<path fill="#3E5A85" d="M408.333,491.302c-2.259,1.043-6.757,2.105-11.99,2.171c-12.277,0.153-21.886-9.252-21.806-21.549
			c0.085-13.045,10.604-22.72,23.545-22.593c3.872,0.038,7.905,0.869,10.338,1.999c-0.765,3.197-1.146,4.797-1.91,7.994
			c-1.737-0.782-4.257-1.653-8.08-1.653c-8.167,0-12.988,6.041-12.945,13.731c0.049,8.641,5.647,13.643,12.945,13.643
			c3.736,0,6.343-0.781,8.428-1.65C407.448,486.558,407.742,488.139,408.333,491.302z"/>
		<path fill="#3E5A85" d="M423.019,474.444c0.261,7.647,6.258,10.948,13.035,10.948c4.952,0,8.512-0.693,11.727-1.91
			c0.626,2.954,0.938,4.432,1.564,7.386c-3.649,1.478-8.766,2.526-14.769,2.604c-12.354,0.16-21.888-8.957-21.81-21.375
			c0.074-11.748,8.205-22.672,20.68-22.767c11.534-0.087,18.329,9.956,18.246,20.592c-0.016,1.983-0.176,3.565-0.35,4.521
			C441.901,474.444,432.46,474.444,423.019,474.444z M441.614,466.971c0.086-3.91-1.649-10.342-8.773-10.342
			c-6.604,0-9.388,5.997-9.822,10.342C430.456,466.971,434.177,466.971,441.614,466.971z"/>
	</g>
</g>
</svg>
