<?xml version="1.0" encoding="utf-8"?>
<!-- Generator: Adobe Illustrator 16.0.0, SVG Export Plug-In . SVG Version: 6.00 Build 0)  -->
<!DOCTYPE svg PUBLIC "-//W3C//DTD SVG 1.1//EN" "http://www.w3.org/Graphics/SVG/1.1/DTD/svg11.dtd">
<svg version="1.1" id="Capa_1" xmlns="http://www.w3.org/2000/svg" xmlns:xlink="http://www.w3.org/1999/xlink" x="0px" y="0px"
	 width="500px" height="500px" viewBox="0 0 500 500" enable-background="new 0 0 500 500" xml:space="preserve">
<g>
	<path fill-rule="evenodd" clip-rule="evenodd" fill="#C95E26" d="M257.777,443.138c-0.182,1.659-0.436,3.877-2.313,1.108
		c-1.275-1.883-1.752-4.324-2.496-6.544c-10.57-31.575-23.256-62.29-40.729-90.667c-18.539-30.107-38.869-59.015-63.53-84.603
		c-7.886-8.182-14.465-17.378-21.144-26.567c-18.161-24.989-25.271-53.402-25.842-83.511c-0.52-27.436,5.841-53.867,21.158-76.725
		c25.486-38.034,60.36-62.498,106.999-67.785c12.078-1.369,24.135-1.893,36.197,0.069c-5.527,3.144-11.215,0.873-16.32,0.918
		c4.156,1.275,9.109,0.537,13.92,1.063c32.516,3.561,60.664,16.792,85.588,37.602c12.586,10.508,23.9,22.321,35.582,33.762
		c19.211,29.236,26.867,61.412,24.443,96.148c-3.887-0.966-1.461-5.292-4.068-7.316c-1.951,11.491-4.395,22.682-7.775,33.71
		c-6.648,21.701-18.9,39.741-34.539,55.816c-24.316,24.996-46.703,51.415-65.66,80.934c-15.146,23.583-26.721,48.59-37.029,74.412
		c-1.963,4.913-2.313,9.84-1.99,14.961C258.68,434.353,257.588,438.722,257.777,443.138z"/>
	<path fill-rule="evenodd" clip-rule="evenodd" fill="#709CD0" d="M331.172,484.348c-58.195-0.516-115.604-5.033-171.825-15.222
		c-9.469-1.714-18.704-3.865-27.006-7.429c-2.568-1.104-4.909-2.58-4.286-4.729c0.56-1.932,3.587-2.483,6.125-3.021
		c7.391-1.569,15.063-2.338,22.76-2.558c50.159-1.426,99.728,1.81,149.093,7.622c20.844,2.455,41.357,5.43,61.408,9.827
		c5.924,1.299,11.768,2.845,16.678,5.478c5.623,3.012,5.133,5.625-1.66,7.231c-9.621,2.277-19.723,2.831-29.904,2.804
		C345.428,484.333,338.299,484.348,331.172,484.348z"/>
	<path fill-rule="evenodd" clip-rule="evenodd" fill="#D07639" d="M256.654,429.042c-1.371-9.693,3.293-17.934,6.799-26.29
		c7.176-17.099,14.297-34.286,24.309-49.995c11.934-18.729,23.77-37.548,38.072-54.63c12.922-15.434,26.902-29.89,40.785-44.451
		c18.703-19.621,29.275-43.457,34.646-69.812c1.156-5.671,1.404-11.55,3.566-17.289c4.355,2.679,2.389,7.585,4.459,10.832
		c-0.65,12.106-3.045,23.862-7.08,35.288c-3.496,0.943-4.504,4.202-6.014,6.816c-4.502,7.785-8.236,16.021-13.889,23.116
		c-4.631,5.813-9.369,11.567-14.648,16.779c-27.123,26.786-50.754,56.181-70.707,88.812c-13.891,22.72-24.297,46.799-34.012,71.368
		C261.574,423.045,261.887,428.006,256.654,429.042z"/>
	<path fill-rule="evenodd" clip-rule="evenodd" fill="#D68B44" d="M392.982,232.725c-3.5,10.316-9.836,18.778-17.434,26.366
		c-30.84,30.806-59.172,63.493-80.393,101.986c-4.322,7.837-8.746,15.764-13.488,23.432c-2.609-1.806-2.707-1.837-1.676-5.042
		c2.477-7.693,6.498-14.704,10.691-21.491c8.922-14.441,17.543-29.082,27.525-42.857c10.682-14.739,22.494-28.508,35.176-41.524
		c12.154-12.474,24.697-24.579,34.395-39.198C389.068,232.451,390.473,230.873,392.982,232.725z"/>
	<path fill-rule="evenodd" clip-rule="evenodd" fill="#D27F3C" d="M392.982,232.725c-3.824-0.456-5.08,2.9-6.443,5.105
		c-6.545,10.58-15.244,19.374-23.943,27.943c-19.408,19.113-37.432,39.346-52.189,62.217
		c-10.045,15.563-20.264,31.121-27.809,48.149c-1.105,2.497-4.109,5.222-0.93,8.369c-8.955,19.139-16.33,38.921-23.891,58.629
		c-2.377-4.54-0.592-9.41-1.123-14.096c4.682-4.613,5.332-11.129,7.588-16.807c7.506-18.899,14.936-37.881,25.598-55.215
		c13.877-22.562,27.994-44.978,45.51-65.094c13.734-15.775,28.836-30.239,42.613-45.946c8.076-9.204,12.928-20.406,19.066-30.809
		c1.232-2.089,2.072-4.526,5.182-2.477C399.93,219.738,397.525,226.725,392.982,232.725z"/>
	<path fill-rule="evenodd" clip-rule="evenodd" fill="#B74F17" d="M384.848,81.259c-4.641-1.935-8.301-5.292-11.572-8.878
		c-21.066-23.075-45.111-42.009-74.631-53.02c-13.896-5.184-28.5-7.846-43.344-8.792c-2.365-0.15-4.609-0.375-6.684-2.655
		c5.824,0,11.646,0,17.465-0.001c22.527,1.931,43.439,8.9,62.926,20.27c17.59,10.264,32.451,23.604,45.354,39.355
		C378.025,72.011,382.262,75.978,384.848,81.259z"/>
	<path fill-rule="evenodd" clip-rule="evenodd" fill="#CB6438" d="M188.451,277.361c-19.699-12.938-35.903-29.176-46.843-50.234
		c-8.549-16.455-13.356-33.903-14.411-52.544c-1.125-19.91,2.656-38.966,9.998-57.101c4.869-12.027,11.948-23.135,21.058-32.841
		c10.792-11.496,22.713-21.473,36.548-28.926c11.746-6.327,24.749-9.185,37.636-12.378c9.816-2.432,19.785-3.22,29.531-2.036
		c24.824,3.018,48.623,9.111,68.994,25.124c16.559,13.017,29.607,28.404,39.146,47.282c14.785,29.261,16.576,59.565,7.6,90.331
		c-5.402,18.511-15.125,35.306-28.205,49.838c0.391,2.429-1.699,3.364-2.982,4.66c-13.646,13.78-29.248,24.918-47.705,30.939
		c-27.977,9.124-56.283,10.311-84.624,0.749c-7.429-2.506-14.67-5.247-21.412-9.249
		C191.142,280.004,189.035,279.593,188.451,277.361z"/>
	<path fill-rule="evenodd" clip-rule="evenodd" fill="#B65419" d="M188.451,277.361c16.151,9.67,33.895,15.208,52.334,17.256
		c14.866,1.651,29.885,0.522,44.749-3.061c25.287-6.096,46.387-18.77,63.969-37.681c1.76,0.115,2.027,0.861,0.824,2.099
		c-12.695,13.055-26.236,24.897-43.4,31.962c-19.223,7.911-39.162,11.972-59.877,10.478c-20.402-1.472-39.775-7.062-57.52-17.582
		C188.233,280.064,186.457,279.243,188.451,277.361z"/>
	<path fill-rule="evenodd" clip-rule="evenodd" fill="#FBFAFA" d="M193.649,196.609c0-8.995,0.213-17.997-0.097-26.98
		c-0.138-3.995,1.264-6.545,4.319-8.898c17.94-13.806,35.822-27.688,53.608-41.691c2.695-2.122,4.469-1.854,7.057,0.139
		c17.643,13.583,35.414,26.999,53.127,40.487c1.838,1.399,3.68,2.622,3.691,5.517c0.084,22.501-0.824,44.966-2.041,67.426
		c-0.154,2.835-1.373,3.708-3.941,3.782c-12.518,0.363-25.029,0.817-37.547,1.19c-3.738,0.112-2.521-2.923-2.527-4.679
		c-0.023-10.961-0.08-21.932,0.396-32.876c0.223-5.099-1.639-6.427-6.373-6.145c-5.854,0.348-11.754,0.304-17.613,0.018
		c-4.274-0.209-5.97,1.116-5.762,5.612c0.524,11.338,0.48,22.702,1.06,34.035c0.226,4.421-1.046,5.84-5.507,5.629
		c-11.722-0.553-23.461-0.811-35.196-0.93c-3.501-0.035-4.485-1.175-4.864-4.695C194.116,221.249,194.986,208.91,193.649,196.609z"
		/>
	<path fill-rule="evenodd" clip-rule="evenodd" fill="#FBFAFA" d="M343.354,162.199c-14.908,3.506-21.604-8.416-30.701-15.305
		c-18.527-14.028-36.744-28.469-54.969-42.892c-2.813-2.226-4.482-0.908-6.539,0.743c-12.816,10.279-25.394,20.879-38.565,30.681
		c-10.982,8.172-21.324,17.062-31.725,25.905c-4.397,3.74-9.391,0.983-13.947,2.037c-0.93-2.132,0.873-2.625,1.731-3.401
		c9.867-8.92,19.392-18.283,29.812-26.511c17.281-13.644,33.812-28.177,50.961-41.967c2.688-2.161,4.83-3.83,8.449-0.888
		c28.203,22.927,57.373,44.684,83.871,69.662C342.268,160.765,342.686,161.393,343.354,162.199z"/>
	<path fill-rule="evenodd" clip-rule="evenodd" fill="#FBFAFA" d="M301.908,117.457c-7.391-5.813-14.383-11.297-21.352-16.815
		c-1.018-0.804-3.982-14.604-3.305-15.55c0.77-1.076,2.07-0.93,3.229-0.929c5.869,0.005,11.74,0.086,17.609,0.026
		c2.631-0.027,3.908,0.791,3.867,3.715C301.826,97.468,301.908,107.036,301.908,117.457z"/>
</g>
</svg>
